HIERARCHY
ROOT Hips
{
	OFFSET	0.00	0.00	0.00
	CHANNELS 6 Xposition Yposition Zposition Zrotation Xrotation Yrotation
	JOINT LeftUpLeg
	{
		OFFSET	 0.126116	-0.065224	 0.014019
		CHANNELS 3 Zrotation Xrotation Yrotation
		JOINT LeftLeg
		{
			OFFSET	 0.000000	 0.569914	 0.000000
			CHANNELS 3 Zrotation Xrotation Yrotation
			JOINT LeftFoot
			{
				OFFSET	 0.000000	 0.544423	 0.000000
				CHANNELS 3 Zrotation Xrotation Yrotation
				JOINT LeftToeBase
				{
					OFFSET	 0.000000	 0.207117	 0.000000
					CHANNELS 3 Zrotation Xrotation Yrotation
					End Site
					{
						OFFSET	 0.000000	 0.207117	 0.000000
					}
				}
			}
		}
	}
	JOINT RightUpLeg
	{
		OFFSET	-0.124023	-0.065224	 0.008373
		CHANNELS 3 Zrotation Xrotation Yrotation
		JOINT RightLeg
		{
			OFFSET	 0.000000	 0.570047	 0.000000
			CHANNELS 3 Zrotation Xrotation Yrotation
			JOINT RightFoot
			{
				OFFSET	 0.000000	 0.544354	 0.000000
				CHANNELS 3 Zrotation Xrotation Yrotation
				JOINT RightToeBase
				{
					OFFSET	 0.000000	 0.207540	 0.000000
					CHANNELS 3 Zrotation Xrotation Yrotation
					End Site
					{
						OFFSET	 0.000000	 0.207540	 0.000000
					}
				}
			}
		}
	}
	JOINT Spine
	{
		OFFSET	 0.000184	 0.117403	 0.007763
		CHANNELS 3 Zrotation Xrotation Yrotation
		JOINT Spine1
		{
			OFFSET	 0.000000	 0.137269	 0.000000
			CHANNELS 3 Zrotation Xrotation Yrotation
			JOINT Spine2
			{
				OFFSET	 0.000000	 0.156879	 0.000000
				CHANNELS 3 Zrotation Xrotation Yrotation
				JOINT LeftShoulder
				{
					OFFSET	 0.080501	 0.160143	 0.002496
					CHANNELS 3 Zrotation Xrotation Yrotation
					JOINT LeftArm
					{
						OFFSET	 0.000000	 0.164363	 0.000000
						CHANNELS 3 Zrotation Xrotation Yrotation
						JOINT LeftForeArm
						{
							OFFSET	 0.000000	 0.364576	 0.000000
							CHANNELS 3 Zrotation Xrotation Yrotation
							JOINT LeftHand
							{
								OFFSET	 0.000000	 0.360812	 0.000000
								CHANNELS 3 Zrotation Xrotation Yrotation
								JOINT LeftHandIndex1
								{
									OFFSET	 0.000000	 0.086006	 0.000000
									CHANNELS 3 Zrotation Xrotation Yrotation
									JOINT LeftHandIndex2
									{
										OFFSET	 0.000000	 0.047237	 0.000000
										CHANNELS 3 Zrotation Xrotation Yrotation
										JOINT LeftHandIndex3
										{
											OFFSET	-0.004284	 0.038165	 0.000551
											CHANNELS 3 Zrotation Xrotation Yrotation
											End Site
											{
												OFFSET	-0.004284	 0.038165	 0.000551
											}
										}
									}
								}
							}
						}
					}
				}
				JOINT Neck
				{
					OFFSET	 0.000000	 0.176489	 0.000000
					CHANNELS 3 Zrotation Xrotation Yrotation
					JOINT Head
					{
						OFFSET	 0.000000	 0.077941	 0.001747
						CHANNELS 3 Zrotation Xrotation Yrotation
						End Site
						{
							OFFSET	 0.000000	 0.077941	 0.001747
						}
					}
				}
				JOINT RightShoulder
				{
					OFFSET	-0.080363	 0.159706	-0.000306
					CHANNELS 3 Zrotation Xrotation Yrotation
					JOINT RightArm
					{
						OFFSET	 0.000000	 0.164196	 0.000000
						CHANNELS 3 Zrotation Xrotation Yrotation
						JOINT RightForeArm
						{
							OFFSET	 0.000000	 0.365611	 0.000000
							CHANNELS 3 Zrotation Xrotation Yrotation
							JOINT RightHand
							{
								OFFSET	 0.000000	 0.360648	 0.000000
								CHANNELS 3 Zrotation Xrotation Yrotation
								JOINT RightHandIndex1
								{
									OFFSET	 0.000000	 0.069977	 0.000000
									CHANNELS 3 Zrotation Xrotation Yrotation
									JOINT RightHandIndex2
									{
										OFFSET	 0.000000	 0.052305	 0.000000
										CHANNELS 3 Zrotation Xrotation Yrotation
										JOINT RightHandIndex3
										{
											OFFSET	 0.009002	 0.042196	 0.000782
											CHANNELS 3 Zrotation Xrotation Yrotation
											End Site
											{
												OFFSET	 0.009002	 0.042196	 0.000782
											}
										}
									}
								}
							}
						}
					}
				}
			}
		}
	}
}
MOTION
Frames:    5
Frame Time: 0.03333334
 0.001727	 1.271211	 0.063398	-0.133171	-0.004808	-179.996600	-177.112200	 1.125107	-10.273840	 2.220585	-10.364730	-0.056026	-5.285593	 70.001520	 4.689840	 1.292262	 28.425850	-2.713146	 176.845900	 1.894412	 10.299400	-2.389147	-11.462040	 0.026435	 5.475815	 70.435090	-4.865023	-1.288183	 28.361890	 2.710176	-0.093065	 2.736244	 3.058583	-0.728762	 3.628031	 1.611414	 0.659342	-4.620306	-4.647774	-101.478000	 1.740675	 90.353370	 3.406747	 65.528120	-0.136446	 2.207463	 4.608139	 1.366285	 12.526210	 4.037098	 9.593346	-6.580301	 5.266122	 0.000000	 0.000000	 0.000000	 0.000000	 0.000000	 0.000000	 0.000000	 0.089846	-3.783161	 0.005928	 0.012087	 1.213353	-1.141480	 101.796200	-0.213316	-89.955450	-5.767709	 64.015240	-2.989172	-4.625404	 7.052934	 1.566387	-13.903200	-3.152804	 13.024960	 15.208500	 5.323790	 0.000000	 0.000000	 0.000000	 0.000000	 0.000000	 0.000000	 0.000000
 0.001780	 1.271194	 0.063620	-0.101434	-0.128242	-179.996600	-177.077000	 1.340865	-10.286500	 2.253144	-10.513260	-0.050128	-5.337436	 70.057810	 4.726620	 1.292262	 28.425850	-2.713146	 176.877200	 2.078248	 10.286210	-2.407341	-11.546950	 0.022809	 5.439580	 70.461260	-4.815002	-1.288183	 28.361890	 2.710176	-0.060034	 2.697468	 3.038388	-0.728567	 3.315983	 1.593475	 0.666152	-4.233148	-4.612799	-101.478000	 1.740664	 90.353390	 3.679424	 65.635170	-0.395901	 2.181988	 4.555187	 1.368330	 12.181950	 3.965549	 9.577375	-6.580301	 5.266122	 0.000000	 0.000000	 0.000000	 0.000000	 0.000000	 0.000000	 0.000000	 0.089846	-3.783161	 0.005928	 0.012465	 1.258896	-1.134548	 101.796200	-0.213313	-89.955440	-7.985374	 65.538900	-0.977964	-2.775281	 4.248471	 1.384232	-14.471630	-1.752294	 13.273090	 15.208500	 5.323790	 0.000000	 0.000000	 0.000000	 0.000000	 0.000000	 0.000000	 0.000000
 0.001727	 1.271659	 0.064729	 0.112975	-0.770862	 179.975900	-176.860300	 2.215446	-10.281360	 2.316159	-10.800310	-0.038476	-5.202448	 70.117400	 4.549016	 1.292262	 28.425850	-2.713146	 177.059800	 2.712141	 10.288680	-2.361187	-11.331470	 0.031959	 5.378855	 70.249820	-4.763625	-1.288183	 28.361890	 2.710176	 0.064359	 2.621110	 0.785331	-0.346353	 1.244084	 0.447715	 0.266871	-1.668107	-1.261656	-101.478000	 1.740672	 90.353370	 5.578143	 65.957410	-2.208730	 2.054723	 4.290779	 1.378104	 9.191764	 2.406675	 2.293589	-6.580301	 5.266122	 0.000000	 0.000000	 0.000000	 0.000000	 0.000000	 0.000000	 0.000000	 0.089846	-3.783161	 0.005928	 0.004400	 1.608292	-0.313478	 101.796200	-0.213307	-89.955450	-10.257660	 66.355440	 1.129244	-2.612190	 3.999837	 1.314056	-13.846150	 0.240753	 5.096603	 15.208500	 5.323790	 0.000000	 0.000000	 0.000000	 0.000000	 0.000000	 0.000000	 0.000000
 0.001674	 1.271667	 0.064728	 0.127771	-0.771814	 179.975000	-176.847800	 2.229652	-10.280480	 2.322107	-10.827380	-0.037355	-5.201130	 70.131870	 4.545998	 1.292262	 28.425850	-2.713146	 177.072500	 2.690705	 10.289560	-2.351441	-11.285930	 0.033870	 5.374831	 70.225950	-4.763369	-1.288183	 28.361890	 2.710176	 0.064132	 2.639196	 0.254213	-0.244582	 1.176098	 0.233118	 0.166158	-1.584244	-0.623341	-101.478000	 1.740664	 90.353380	 5.637588	 65.882150	-2.276184	 2.054770	 4.290848	 1.378095	 8.952793	 2.165002	 0.844796	-6.580301	 5.266122	 0.000000	 0.000000	 0.000000	 0.000000	 0.000000	 0.000000	 0.000000	 0.089846	-3.783161	 0.005928	 0.002199	 1.621320	-0.155440	 101.796200	-0.213311	-89.955450	-11.236820	 66.405070	 2.050343	-2.627564	 4.023180	 1.210085	-14.576790	 0.519153	 2.689995	 15.208500	 5.323790	 0.000000	 0.000000	 0.000000	 0.000000	 0.000000	 0.000000	 0.000000
 0.001624	 1.271679	 0.064729	 0.144253	-0.772369	 179.973800	-176.833400	 2.243753	-10.279580	 2.328193	-10.855060	-0.036211	-5.199528	 70.146590	 4.542304	 1.292262	 28.425850	-2.713146	 177.086600	 2.668886	 10.290390	-2.341674	-11.240280	 0.035779	 5.371864	 70.201880	-4.764023	-1.288183	 28.361890	 2.710176	 0.067227	 2.644129	-0.364995	-0.137008	 1.154927	 0.046756	 0.057892	-1.558774	 0.012216	-101.478000	 1.740666	 90.353390	 5.627077	 65.779660	-2.282203	 2.055130	 4.291496	 1.378099	 8.750977	 1.895099	-0.694815	-6.580301	 5.266122	 0.000000	 0.000000	 0.000000	 0.000000	 0.000000	 0.000000	 0.000000	 0.089846	-3.783161	 0.005928	-0.000171	 1.625430	 0.012040	 101.796200	-0.213317	-89.955440	-12.860180	 66.464070	 3.572565	-2.655270	 4.065482	 1.046308	-15.660480	 0.792862	-0.356635	 15.208500	 5.323790	 0.000000	 0.000000	 0.000000	 0.000000	 0.000000	 0.000000	 0.000000
